<svg xmlns="http://www.w3.org/2000/svg" viewBox="0 0 200 200" width="200" height="200">
  <defs>
    <linearGradient id="bg" x1="0" y1="0" x2="0.3" y2="1"><stop offset="0" stop-color="#FF9A4D"></stop><stop offset="0.55" stop-color="#FF6B2B"></stop><stop offset="1" stop-color="#EA4A14"></stop></linearGradient>
    <linearGradient id="gloss" x1="0" y1="0" x2="0" y2="1"><stop offset="0" stop-color="#fff" stop-opacity="0.42"></stop><stop offset="0.45" stop-color="#fff" stop-opacity="0"></stop></linearGradient>
  </defs>
  <rect width="200" height="200" rx="46" fill="url(#bg)"></rect>
  <rect width="200" height="200" rx="46" fill="url(#gloss)"></rect>
  <path d="M40 44 h120 a20 20 0 0 1 20 20 v54 a20 20 0 0 1 -20 20 H94 l-30 28 v-28 H40 a20 20 0 0 1 -20 -20 V64 a20 20 0 0 1 20 -20 Z" fill="#fff"></path>
  <g fill="#EA4A14"><rect x="52" y="86" width="24" height="38" rx="3"></rect><rect x="83" y="66" width="32" height="58" rx="3"></rect><rect x="122" y="80" width="26" height="44" rx="3"></rect></g>
  <g fill="#E9B872"><rect x="83" y="62" width="32" height="5" rx="2"></rect></g>
  <g fill="#fff" opacity="0.92"><rect x="58" y="94" width="5" height="5" rx="1"></rect><rect x="66" y="94" width="5" height="5" rx="1"></rect><rect x="58" y="104" width="5" height="5" rx="1"></rect><rect x="66" y="104" width="5" height="5" rx="1"></rect><rect x="90" y="74" width="6" height="6" rx="1"></rect><rect x="100" y="74" width="6" height="6" rx="1"></rect><rect x="90" y="86" width="6" height="6" rx="1"></rect><rect x="100" y="86" width="6" height="6" rx="1"></rect><rect x="90" y="98" width="6" height="6" rx="1"></rect><rect x="100" y="98" width="6" height="6" rx="1"></rect><rect x="128" y="88" width="5" height="5" rx="1"></rect><rect x="137" y="88" width="5" height="5" rx="1"></rect><rect x="128" y="98" width="5" height="5" rx="1"></rect><rect x="137" y="98" width="5" height="5" rx="1"></rect></g>
</svg>